<?xml version="1.0" encoding="utf-8"?>
<svg version="1.1" xmlns="http://www.w3.org/2000/svg" x="0px" y="0px" viewBox="0 0 100 100" style="enable-background:new 0 0 100 100;" xml:space="preserve">
<radialGradient id="blue" cx="46" cy="50" r="68.3333" gradientUnits="userSpaceOnUse"><stop offset="0" style="stop-color:#0090DE"/><stop offset="1" style="stop-color:#104C7D"/></radialGradient><filter id="dropShadow"><feGaussianBlur in="SourceAlpha" stdDeviation="1" /><feOffset dx="1" dy="1" /><feMerge><feMergeNode /><feMergeNode in="SourceGraphic" /></feMerge></filter><path filter="url(#dropShadow)" fill="#000000" d="M85.3,14.8c-3.3-3.4-7.5-6-12.5-7.7c-5.3-1.7-11.6-2.6-18.7-2.6H4.5v91h45.4c8.2,0,15.3-1.1,21.1-3.3 c5.6-2.2,10.3-5.2,13.9-9.2c3.6-4,6.3-8.8,8-14.5c1.8-5.9,2.7-12.6,2.7-19.8c0-8-0.9-14.9-2.7-20.5C91.1,22.8,88.6,18.3,85.3,14.8z M44.3,62.3l-0.9,8.6c-0.1,0.8-0.7,1.3-1.5,1.3h-7.1l-1.6,16.2c-0.1,0.8-0.7,1.4-1.5,1.4h-8.7c-0.4,0-0.8-0.2-1.1-0.5 c-0.3-0.3-0.4-0.7-0.4-1.1l1.6-15.9H12.3c-0.8,0-1.5-0.7-1.5-1.5v-8.6c0-0.8,0.7-1.5,1.5-1.5h12l0.8-7.5c0.1-0.8,0.7-1.4,1.5-1.4 h8.6c0.4,0,0.8,0.2,1.1,0.5c0.3,0.3,0.4,0.7,0.4,1.2L36,60.6h6.8c0.4,0,0.8,0.2,1.1,0.5C44.2,61.4,44.4,61.9,44.3,62.3z M45.3,39.4 h-7.2l-0.8,7.5c-0.1,0.8-0.7,1.4-1.5,1.4h-8.6c-0.4,0-0.8-0.2-1.1-0.5c-0.3-0.3-0.4-0.7-0.4-1.2l0.7-7.3H15.7 c-0.8,0-1.5-0.7-1.5-1.5v-8.6c0-0.8,0.7-1.5,1.5-1.5h12l1.7-16.2c0.1-0.8,0.7-1.3,1.5-1.3h8.6c0.4,0,0.8,0.2,1.1,0.5 c0.3,0.3,0.4,0.7,0.4,1.2l-1.6,15.9h6.9c0.4,0,0.8,0.2,1.1,0.5c0.3,0.3,0.4,0.7,0.4,1.2L46.8,38C46.7,38.8,46.1,39.4,45.3,39.4z M79.5,70.7c0,0.8-0.7,1.5-1.5,1.5H66.9l-1.6,16.2c-0.1,0.8-0.7,1.4-1.5,1.4h-8.7c-0.4,0-0.8-0.2-1.1-0.5c-0.3-0.3-0.4-0.7-0.4-1.2 l1.6-15.9h-6.8c-0.4,0-0.8-0.2-1.1-0.5c-0.3-0.3-0.4-0.7-0.4-1.2l0.9-8.6c0.1-0.8,0.7-1.4,1.5-1.4h7.1l0.8-7.5 c0.1-0.8,0.7-1.4,1.5-1.4h8.6c0.4,0,0.8,0.2,1.1,0.5c0.3,0.3,0.4,0.7,0.4,1.2l-0.7,7.3H78c0.8,0,1.5,0.7,1.5,1.5V70.7z M83,37.9 c0,0.8-0.7,1.5-1.5,1.5H70.2l-0.8,7.5c-0.1,0.8-0.7,1.4-1.5,1.4h-8.6c-0.4,0-0.8-0.2-1.1-0.5c-0.3-0.3-0.4-0.7-0.4-1.2l0.7-7.2 h-6.9c-0.4,0-0.8-0.2-1.1-0.5c-0.3-0.3-0.4-0.7-0.4-1.2l0.9-8.6c0.1-0.8,0.7-1.4,1.5-1.4h7.2l1.6-16.2c0.1-0.8,0.7-1.3,1.5-1.3h8.5 c0.4,0,0.8,0.2,1.1,0.5c0.3,0.3,0.4,0.7,0.4,1.2l-1.6,15.9h10.1c0.8,0,1.5,0.7,1.5,1.5V37.9z"/><path fill="url(#blue)" d="M97.1,26.9C99,33,100,40.3,100,48.7c0,7.8-1,14.8-2.9,21.1c-1.9,6.3-4.9,11.7-8.9,16.2 c-4.1,4.5-9.3,7.9-15.6,10.3c-6.3,2.4-13.9,3.6-22.7,3.6H0V0h54.1c7.7,0,14.4,1,20.1,2.9s10.5,4.9,14.3,8.8 C92.3,15.7,95.2,20.7,97.1,26.9z M82.5,37.9v-8.6c0-0.6-0.5-1-1-1H70.8l1.7-16.5c0-0.3-0.1-0.6-0.3-0.8c-0.2-0.2-0.5-0.3-0.7-0.3 h-8.5c-0.5,0-1,0.4-1,0.9l-1.7,16.7h-7.6c-0.5,0-0.9,0.4-1,0.9l-0.9,8.6c0,0.3,0.1,0.6,0.3,0.8c0.2,0.2,0.5,0.3,0.7,0.3h7.4 l-0.8,7.8c0,0.3,0.1,0.6,0.3,0.8c0.2,0.2,0.5,0.3,0.7,0.3h8.6c0.5,0,0.9-0.4,1-0.9l0.8-8h11.8C82.1,38.9,82.5,38.4,82.5,37.9z M79,70.7v-8.6c0-0.5-0.4-1-1-1H67.5l0.8-7.8c0-0.3-0.1-0.6-0.3-0.8c-0.2-0.2-0.5-0.3-0.7-0.3h-8.6c-0.5,0-0.9,0.4-1,0.9l-0.8,8 h-7.6c-0.5,0-0.9,0.4-1,0.9l-0.9,8.6c0,0.3,0.1,0.6,0.3,0.8c0.2,0.2,0.5,0.3,0.7,0.3h7.4l-1.7,16.5c0,0.3,0.1,0.6,0.3,0.8 c0.2,0.2,0.5,0.3,0.7,0.3h8.7c0.5,0,0.9-0.4,1-0.9l1.7-16.7H78C78.6,71.7,79,71.3,79,70.7z M47.2,29.4c0-0.3-0.1-0.6-0.3-0.8 c-0.2-0.2-0.5-0.3-0.7-0.3h-7.4l1.7-16.5c0-0.3-0.1-0.6-0.3-0.8c-0.2-0.2-0.5-0.3-0.7-0.3h-8.6c-0.5,0-0.9,0.4-1,0.9l-1.7,16.7H15.7 c-0.5,0-1,0.4-1,1v8.6c0,0.5,0.5,1,1,1h11.4l-0.8,7.8c0,0.3,0.1,0.6,0.3,0.8c0.2,0.2,0.5,0.3,0.7,0.3h8.6c0.5,0,1-0.4,1-0.9l0.8-8 h7.6c0.5,0,0.9-0.4,1-0.9L47.2,29.4z M43.8,62.2c0-0.3-0.1-0.6-0.3-0.8c-0.2-0.2-0.5-0.3-0.7-0.3h-7.4l0.8-7.8 c0-0.3-0.1-0.6-0.3-0.8c-0.2-0.2-0.5-0.3-0.7-0.3h-8.6c-0.5,0-0.9,0.4-1,0.9l-0.8,8H12.3c-0.6,0-1,0.5-1,1v8.6c0,0.5,0.4,1,1,1h11.4 l-1.7,16.5c0,0.3,0.1,0.6,0.3,0.8c0.2,0.2,0.5,0.3,0.8,0.3h8.7c0.5,0,0.9-0.4,1-0.9l1.7-16.7H42c0.5,0,0.9-0.4,1-0.9L43.8,62.2z"/></svg>